<?xml version="1.0" standalone="no"?><!DOCTYPE svg PUBLIC "-//W3C//DTD SVG 1.1//EN" "http://www.w3.org/Graphics/SVG/1.1/DTD/svg11.dtd"><svg height="1600" node-id="1" sillyvg="true" template-height="1600" template-width="1600" version="1.1" viewBox="0 0 1600 1600" width="1600" xmlns="http://www.w3.org/2000/svg" xmlns:xlink="http://www.w3.org/1999/xlink"><defs node-id="13"></defs><path d="M 0.00 0.00 L 1600.00 0.00 L 1600.00 1600.00 L 0.00 1600.00 Z" fill="#ffffff" fill-rule="nonzero" node-id="15" stroke="none" target-height="1600" target-width="1600" target-x="0" target-y="0"></path><path d="M 1245.00 1075.00 C 1245.00 1125.81 1034.80 1167.00 775.50 1167.00 C 516.20 1167.00 306.00 1125.81 306.00 1075.00 C 306.00 1024.19 516.20 983.00 775.50 983.00 C 1034.80 983.00 1245.00 1024.19 1245.00 1075.00 Z" fill="#d9d9d9" fill-rule="nonzero" node-id="17" stroke="none" target-height="184" target-width="939" target-x="306" target-y="983"></path><path d="M 691.92 360.24 C 696.26 357.82 700.77 359.65 703.86 361.65 C 707.16 363.78 710.61 367.19 714.08 371.24 C 721.07 379.42 729.07 391.40 737.19 404.76 C 751.66 428.59 766.87 457.53 777.87 479.04 C 801.65 496.63 820.71 519.85 832.64 547.94 C 840.23 565.81 844.40 584.38 845.45 603.08 C 846.24 605.23 847.04 607.36 847.83 609.49 C 864.21 653.41 879.99 690.99 929.90 701.04 C 947.81 700.69 965.57 703.58 982.51 709.18 C 1000.86 701.06 1019.48 705.35 1014.91 688.37 C 1007.02 659.13 989.80 561.07 1029.44 548.33 C 1045.22 543.26 1109.44 693.62 1099.38 739.98 C 1095.12 759.58 1087.43 773.54 1078.03 783.50 C 1096.87 812.74 1107.09 847.60 1103.81 884.21 C 1183.72 869.29 1291.29 796.07 1263.53 737.88 C 1224.09 655.21 1171.76 618.12 1212.82 580.14 C 1262.98 533.75 1335.38 599.89 1346.39 701.40 C 1361.23 838.26 1178.38 952.67 1083.06 950.03 C 1035.99 1038.34 941.68 1090.59 842.70 1104.69 C 743.63 1118.81 638.73 1094.86 570.48 1029.35 C 537.47 1126.10 426.48 1098.25 458.78 1075.63 C 485.03 1057.26 473.52 925.11 460.20 857.40 C 445.19 814.45 438.93 773.18 438.51 735.87 C 435.42 730.44 432.63 724.80 430.14 718.94 C 419.09 692.94 415.29 665.44 417.83 638.24 C 409.81 614.97 399.07 580.87 392.08 551.63 C 388.49 536.62 385.84 522.65 385.10 512.02 C 384.74 506.75 384.82 501.95 385.66 498.13 C 385.79 497.58 385.94 497.00 386.12 496.42 C 386.63 493.94 387.52 492.22 388.85 491.39 C 389.90 490.22 391.26 489.27 393.01 488.73 C 397.55 487.36 405.60 486.41 415.20 485.73 C 424.99 485.04 436.92 484.61 449.54 484.42 C 470.58 484.11 493.72 484.47 512.34 485.48 C 526.25 475.82 541.47 467.36 557.87 460.39 C 573.30 453.83 588.96 448.95 604.60 445.64 C 617.09 431.21 633.63 413.60 649.12 398.11 C 658.12 389.11 666.81 380.79 674.18 374.19 C 681.41 367.71 687.75 362.56 691.92 360.24 Z" fill="#000000" fill-rule="nonzero" node-id="19" stroke="none" target-height="768.27594" target-width="976.493" target-x="384.737" target-y="357.82404"></path><g node-id="38"><path d="M 408.02 518.00 C 426.75 520.46 472.87 527.79 467.52 535.29 C 451.68 557.52 432.20 595.24 429.88 603.64 C 427.56 612.05 400.39 525.92 408.02 518.00 Z M 702.08 393.07 C 713.08 393.09 756.21 472.42 748.55 468.26 C 740.89 464.09 700.21 451.93 673.22 447.90 C 664.11 446.55 690.85 408.26 702.08 393.07 Z" fill="#ffffff" fill-opacity="0.2" fill-rule="nonzero" group-id="1" node-id="23" stroke="none" target-height="218.97397" target-width="355.81802" target-x="400.395" target-y="393.074"></path></g><path d="M 579.49 699.87 C 580.01 699.69 580.58 699.97 580.76 700.49 C 580.93 701.01 580.66 701.58 580.14 701.76 C 577.11 702.80 571.01 705.91 563.02 710.35 C 555.07 714.77 545.32 720.46 535.05 726.58 C 514.52 738.83 491.91 752.84 477.35 762.00 C 476.89 762.29 476.27 762.15 475.98 761.68 C 475.68 761.22 475.82 760.60 476.29 760.31 C 490.85 751.14 513.48 737.13 534.03 724.87 C 544.31 718.73 554.07 713.04 562.05 708.60 C 570.00 704.19 576.26 700.98 579.49 699.87 Z M 575.19 689.53 C 575.73 689.40 576.27 689.73 576.40 690.26 C 576.53 690.80 576.21 691.34 575.67 691.47 C 558.98 695.59 533.20 702.14 510.12 708.42 C 498.59 711.56 487.73 714.62 479.03 717.28 C 470.29 719.95 463.81 722.18 460.96 723.64 C 460.47 723.89 459.87 723.69 459.62 723.20 C 459.37 722.71 459.56 722.11 460.05 721.86 C 463.09 720.30 469.75 718.02 478.44 715.37 C 487.17 712.70 498.05 709.63 509.60 706.49 C 532.69 700.21 558.49 693.65 575.19 689.53 Z M 828.71 616.64 C 829.25 616.51 829.79 616.84 829.92 617.37 C 830.05 617.91 829.72 618.45 829.18 618.58 C 813.04 622.46 788.11 628.65 765.81 634.60 C 754.66 637.58 744.16 640.49 735.76 643.02 C 727.31 645.56 721.06 647.70 718.32 649.11 C 717.83 649.36 717.23 649.16 716.98 648.67 C 716.72 648.18 716.92 647.58 717.41 647.33 C 720.34 645.82 726.78 643.63 735.18 641.10 C 743.62 638.56 754.13 635.64 765.29 632.67 C 787.62 626.71 812.56 620.52 828.71 616.64 Z M 812.85 579.54 C 813.38 579.36 813.94 579.64 814.12 580.16 C 814.30 580.68 814.02 581.25 813.50 581.43 C 810.58 582.42 804.71 585.44 797.01 589.75 C 789.36 594.05 779.98 599.58 770.09 605.54 C 750.33 617.46 728.57 631.11 714.57 640.03 C 714.10 640.33 713.49 640.19 713.19 639.73 C 712.89 639.26 713.03 638.64 713.49 638.35 C 727.50 629.41 749.28 615.76 769.06 603.83 C 778.95 597.86 788.35 592.32 796.04 588.01 C 803.69 583.72 809.73 580.60 812.85 579.54 Z" fill="#ffffff" fill-rule="nonzero" node-id="26" stroke="none" target-height="182.932" target-width="370.681" target-x="459.36502" target-y="579.36"></path><path d="M 522.53 612.07 C 535.81 602.74 561.18 605.50 573.12 622.50 C 585.07 639.50 586.29 659.22 565.77 673.64 C 553.10 682.54 532.20 687.44 520.26 670.44 C 508.32 653.44 503.82 625.21 522.53 612.07 Z M 678.07 544.07 C 692.10 535.34 717.75 539.59 728.92 557.56 C 740.10 575.52 740.23 595.64 718.54 609.14 C 705.15 617.47 683.62 621.27 672.45 603.31 C 661.27 585.34 658.29 556.38 678.07 544.07 Z" fill="#ffffff" fill-rule="nonzero" node-id="28" stroke="none" target-height="152.09998" target-width="236.41101" target-x="503.81903" target-y="535.344"></path><path d="M 530.58 615.11 C 543.25 606.22 562.15 611.29 571.75 624.96 C 581.35 638.63 578.86 656.92 566.19 665.82 C 553.52 674.72 538.75 679.36 529.15 665.69 C 519.55 652.03 515.77 625.52 530.58 615.11 Z M 687.16 547.65 C 700.55 539.33 719.48 545.56 728.46 560.00 C 737.45 574.45 733.88 592.90 720.50 601.23 C 707.11 609.56 691.82 613.45 682.84 599.00 C 673.85 584.56 671.51 557.39 687.16 547.65 Z" fill="#fed43e" fill-rule="nonzero" node-id="30" stroke="none" target-height="140.03796" target-width="221.67896" target-x="515.77" target-y="539.325"></path><path d="M 564.05 626.47 C 566.85 625.97 570.04 630.65 571.17 636.93 C 572.30 643.21 570.94 648.71 568.13 649.22 C 565.33 649.72 562.14 645.04 561.01 638.76 C 559.88 632.47 561.24 626.97 564.05 626.47 Z M 713.74 564.08 C 716.60 563.57 719.83 568.24 720.95 574.51 C 722.08 580.78 720.67 586.28 717.82 586.79 C 714.96 587.31 711.73 582.64 710.60 576.37 C 709.48 570.09 710.88 564.59 713.74 564.08 Z" fill="#000000" fill-rule="nonzero" node-id="32" stroke="none" target-height="86.15497" target-width="162.19897" target-x="559.88" target-y="563.567"></path><path d="M 610.87 645.68 C 612.82 650.28 621.19 646.86 631.46 642.49 C 641.72 638.13 650.00 634.49 648.04 629.89 C 646.09 625.29 634.64 621.47 624.38 625.83 C 614.11 630.19 608.91 641.08 610.87 645.68 Z" fill="#ffcfc2" fill-rule="nonzero" node-id="34" stroke="none" target-height="28.814026" target-width="41.083984" target-x="608.912" target-y="621.469"></path><path d="M 815.85 847.63 C 818.12 847.00 820.50 847.14 822.76 848.15 C 824.92 849.12 826.70 850.76 828.18 852.68 C 831.72 857.25 834.42 864.23 836.54 872.35 C 838.70 880.60 840.38 890.58 841.58 901.59 C 843.98 923.63 844.51 950.19 842.93 976.19 C 841.35 1002.15 837.65 1027.81 831.50 1047.95 C 828.43 1058.01 824.67 1066.91 820.12 1073.83 C 815.59 1080.71 809.94 1086.10 802.93 1088.24 C 800.29 1089.04 797.49 1087.56 796.69 1084.91 C 795.88 1082.27 797.37 1079.48 800.01 1078.67 C 803.92 1077.48 807.90 1074.20 811.76 1068.33 C 815.60 1062.50 819.01 1054.59 821.94 1045.03 C 827.77 1025.92 831.39 1001.12 832.95 975.58 C 834.50 950.07 833.97 924.08 831.64 902.68 C 830.47 891.97 828.86 882.51 826.87 874.87 C 824.84 867.10 822.54 861.73 820.26 858.79 C 819.42 857.70 818.86 857.36 818.67 857.28 C 818.59 857.24 818.60 857.24 818.51 857.27 C 817.90 857.43 816.38 858.40 814.10 861.58 C 809.72 867.67 805.15 878.09 800.40 889.63 C 795.79 900.84 791.06 913.00 786.51 921.53 C 784.28 925.73 781.79 929.64 779.01 932.11 C 777.58 933.38 775.72 934.59 773.45 934.98 C 771.28 935.34 769.23 934.87 767.45 933.79 C 743.04 925.47 725.35 924.33 712.16 927.44 C 699.02 930.54 689.77 937.99 682.48 948.09 C 675.10 958.33 669.84 971.13 664.80 984.70 C 659.85 998.03 655.06 1012.26 648.66 1024.25 C 647.36 1026.69 644.33 1027.61 641.90 1026.31 C 639.46 1025.01 638.54 1021.98 639.84 1019.54 C 645.82 1008.32 650.30 995.03 655.43 981.22 C 660.47 967.65 666.11 953.69 674.38 942.24 C 682.74 930.64 693.90 921.47 709.86 917.71 C 725.66 913.98 745.58 915.69 771.29 924.53 L 772.01 924.78 L 772.11 924.86 C 772.18 924.79 772.27 924.72 772.37 924.64 C 773.74 923.42 775.53 920.88 777.69 916.83 C 781.92 908.87 786.38 897.43 791.15 885.83 C 795.79 874.56 800.79 862.96 805.97 855.75 C 808.46 852.27 811.71 848.77 815.85 847.63 Z M 810.24 735.01 C 813.00 735.14 815.13 737.49 814.99 740.24 C 813.99 760.85 804.22 796.43 791.01 828.03 C 784.38 843.90 776.78 859.01 768.81 870.92 C 761.00 882.58 752.22 892.13 742.90 895.43 C 737.42 897.36 732.23 897.69 727.80 895.40 C 723.41 893.12 721.00 888.90 719.63 884.53 C 716.96 876.03 717.25 863.64 717.78 851.57 C 718.33 839.01 719.20 826.25 718.33 815.59 C 717.90 810.28 717.05 805.84 715.68 802.41 C 714.33 799.01 712.60 796.94 710.56 795.79 C 708.15 794.44 707.29 791.39 708.64 788.99 C 709.99 786.58 713.03 785.72 715.44 787.07 C 720.09 789.67 723.07 793.93 724.97 798.71 C 726.86 803.44 727.83 809.00 728.30 814.77 C 729.24 826.25 728.30 839.91 727.77 852.00 C 727.21 864.57 727.13 875.04 729.17 881.54 C 730.15 884.67 731.36 885.98 732.40 886.52 C 733.41 887.04 735.45 887.45 739.56 886.00 C 745.59 883.87 752.83 876.81 760.50 865.36 C 767.99 854.17 775.30 839.69 781.79 824.18 C 794.81 793.02 804.08 758.67 805.01 739.76 C 805.14 737.00 807.49 734.87 810.24 735.01 Z" fill="#ffffff" fill-rule="nonzero" node-id="36" stroke="none" target-height="354.16907" target-width="205.96893" target-x="638.539" target-y="734.871"></path></svg>